<?xml version="1.0" encoding="UTF-8"?>
<svg xmlns="http://www.w3.org/2000/svg" version="1.1" viewBox="0 0 800 800">
  <defs>
    <style>
      .cls-1 {
        fill: #f1f2f2;
      }
    </style>
  </defs>
  <!-- Generator: Adobe Illustrator 28.7.1, SVG Export Plug-In . SVG Version: 1.2.0 Build 142)  -->
  <g>
    <g id="Layer_1">
      <path class="cls-1" d="M330.504,677.693l445.784-445.611c15.138-15.138,15.138-39.68,0-54.818,0,0,0,0,0,0l-54.818-54.956c-15.138-15.138-39.68-15.138-54.818,0,0,0,0,0,0,0l-363.539,363.539-169.727-169.727c-15.138-15.138-39.68-15.138-54.818,0,0,0,0,0,0,0l-54.853,54.784c-15.138,15.138-15.138,39.68,0,54.818,0,0,0,0,0,0l251.972,251.972c15.138,15.138,39.68,15.138,54.818,0,0,0,0,0,0,0Z"/>
    </g>
  </g>
</svg>