<?xml version="1.0" encoding="UTF-8"?>
<svg xmlns="http://www.w3.org/2000/svg" version="1.1" viewBox="0 0 800 800">
  <defs>
    <style>
      .cls-1 {
        fill: #f1f2f2;
      }
    </style>
  </defs>
  <!-- Generator: Adobe Illustrator 28.7.1, SVG Export Plug-In . SVG Version: 1.2.0 Build 142)  -->
  <g>
    <g id="Layer_1">
      <path id="Icon_material-timelapse" class="cls-1" d="M563.407,236.593c-43.261-43.471-102.078-67.886-163.407-67.829v231.236l-163.407,163.407c90.247,90.247,236.566,90.247,326.814,0,90.247-90.247,90.247-236.566,0-326.813ZM400,14.607C187.153,14.607,14.607,187.153,14.607,400s172.546,385.393,385.393,385.393,385.393-172.546,385.393-385.393c-.071-212.817-172.576-385.322-385.393-385.393ZM400,708.315c-170.277,0-308.315-138.037-308.315-308.315S229.723,91.685,400,91.685s308.315,138.037,308.315,308.315-138.037,308.315-308.315,308.315Z"/>
    </g>
  </g>
</svg>