<?xml version="1.0" encoding="UTF-8"?>
<svg id="Layer_1" xmlns="http://www.w3.org/2000/svg" version="1.1" viewBox="0 0 800 800">
  <!-- Generator: Adobe Illustrator 29.1.0, SVG Export Plug-In . SVG Version: 2.1.0 Build 142)  -->
  <defs>
    <style>
      .st0 {
        fill-rule: evenodd;
      }

      .st0, .st1 {
        fill: #f5f5f5;
      }
    </style>
  </defs>
  <path class="st0" d="M728.3,450.1c0,181.3-147,328.3-328.3,328.3S71.7,631.4,71.7,450.1,218.7,121.8,400,121.8s328.3,147,328.3,328.3ZM363.6,541.4v-182.4c0-17,0-25.5-2.7-32.2-3.7-9-10.8-16.1-19.7-19.7-6.7-2.7-15.2-2.7-32.2-2.7s-25.5,0-32.2,2.7c-9,3.7-16.1,10.8-19.7,19.7-2.7,6.7-2.7,15.2-2.7,32.2v182.4c0,17,0,25.5,2.7,32.2,3.7,9,10.8,16.1,19.7,19.7,6.7,2.7,15.2,2.7,32.2,2.7s25.5,0,32.2-2.7c9-3.7,16.1-10.8,19.7-19.7,2.7-6.7,2.7-15.2,2.7-32.2ZM545.9,541.4v-182.4c0-17,0-25.5-2.7-32.2-3.7-9-10.8-16.1-19.7-19.7-6.7-2.7-15.2-2.7-32.2-2.7s-25.5,0-32.2,2.7c-9,3.7-16.1,10.8-19.7,19.7-2.7,6.7-2.7,15.2-2.7,32.2v182.4c0,17,0,25.5,2.7,32.2,3.7,9,10.8,16.1,19.7,19.7,6.7,2.7,15.2,2.7,32.2,2.7s25.5,0,32.2-2.7c9-3.7,16.1-10.8,19.7-19.7,2.7-6.7,2.7-15.2,2.7-32.2Z"/>
  <path class="st1" d="M327,21.6c-15.1,0-27.4,12.3-27.4,27.4s12.3,27.4,27.4,27.4h145.9c15.1,0,27.4-12.3,27.4-27.4s-12.3-27.4-27.4-27.4h-145.9Z"/>
</svg>